<mxfile host="app.diagrams.net" modified="2022-05-22T06:34:23.119Z" agent="5.0 (Windows)" etag="b0b-Kxym-32u73SiEonD" version="16.6.2" type="github">
  <diagram id="d_kelk01pUE1jKnP3URO" name="Page-1">
    <mxGraphModel dx="868" dy="388" grid="1" gridSize="10" guides="1" tooltips="1" connect="1" arrows="1" fold="1" page="1" pageScale="1" pageWidth="850" pageHeight="1100" math="0" shadow="0">
      <root>
        <mxCell id="0" />
        <mxCell id="1" parent="0" />
        <mxCell id="uXBMOKKRQQdfkrVLRq0o-1" value="aligner" style="rounded=0;whiteSpace=wrap;html=1;" vertex="1" parent="1">
          <mxGeometry x="150" y="400" width="140" height="40" as="geometry" />
        </mxCell>
        <mxCell id="uXBMOKKRQQdfkrVLRq0o-3" style="edgeStyle=orthogonalEdgeStyle;rounded=0;orthogonalLoop=1;jettySize=auto;html=1;entryX=1;entryY=0.5;entryDx=0;entryDy=0;" edge="1" parent="1" source="uXBMOKKRQQdfkrVLRq0o-2" target="uXBMOKKRQQdfkrVLRq0o-1">
          <mxGeometry relative="1" as="geometry" />
        </mxCell>
        <mxCell id="uXBMOKKRQQdfkrVLRq0o-2" value="&lt;h1&gt;Pre Top of Stack&lt;br&gt;&lt;/h1&gt;&lt;p&gt;&lt;br&gt;&lt;/p&gt;" style="text;html=1;strokeColor=none;fillColor=none;spacing=5;spacingTop=-20;whiteSpace=wrap;overflow=hidden;rounded=0;" vertex="1" parent="1">
          <mxGeometry x="380" y="400" width="220" height="40" as="geometry" />
        </mxCell>
      </root>
    </mxGraphModel>
  </diagram>
</mxfile>
